# AST/ASF file generated using VICON BodyLanguage
# -----------------------------------------------
:version 1.10
:name VICON
:units
  mass 1.0
  length 0.45
  angle deg
:documentation
   .ast/.asf automatically generated from VICON data using
   VICON BodyBuilder and BodyLanguage model FoxedUp or BRILLIANT.MOD
:root
   order TX TY TZ RX RY RZ
   axis XYZ
   position 0 0 0  
   orientation 0 0 0 
:bonedata
  begin
     id 1 
     name lhipjoint
     direction 0.643824 -0.71708 0.266994 
     length 2.52133 
     axis 0 0 0  XYZ
  end
  begin
     id 2 
     name lfemur
     direction 0.34202 -0.939693 0  
     length 7.51824  
     axis 0 0 20  XYZ
    dof rx ry rz
    limits (-160.0 20.0)
           (-70.0 70.0)
           (-60.0 70.0)
  end
  begin
     id 3 
     name ltibia
     direction 0.34202 -0.939693 0   
     length 7.3685   
     axis 0 0 20   XYZ
    dof rx
    limits (-10.0 170.0)
  end
  begin
     id 4 
     name lfoot
     direction 0.105419 -0.289636 0.951314   
     length 2.20972   
     axis -90 7.62852e-016 20   XYZ
    dof rx rz
    limits (-45.0 90.0)
           (-70.0 20.0)
  end
  begin
     id 5 
     name ltoes
     direction 1.53549e-011 -4.21833e-011 1   
     length 1.10139   
     axis -90 7.62852e-016 20   XYZ
    dof rx
    limits (-90.0 20.0)
  end
  begin
     id 6 
     name rhipjoint
     direction -0.608823 -0.743445 0.276811   
     length 2.43192  
     axis 0 0 0  XYZ 
  end
  begin
     id 7 
     name rfemur
     direction -0.34202 -0.939693 0   
     length 7.69715   
     axis 0 0 -20   XYZ
    dof rx ry rz
    limits (-160.0 20.0)
           (-70.0 70.0)
           (-70.0 60.0)
  end
  begin
     id 8 
     name rtibia
     direction -0.34202 -0.939693 0   
     length 7.44924   
     axis 0 0 -20   XYZ
    dof rx
    limits (-10.0 170.0)
 end
 begin
     id 9 
     name rfoot
     direction -0.103614 -0.284677 0.953007   
     length 2.22623  
     axis -90 -7.62852e-016 -20   XYZ
    dof rx rz
    limits (-45.0 90.0)
           (-20.0 70.0)
  end
  begin
     id 10 
     name rtoes
     direction -1.53537e-011 -4.22026e-011 1   
     length 1.11   
     axis -90 -7.62852e-016 -20   XYZ
    dof rx
    limits (-90.0 20.0)
  end
  begin
     id 11 
     name lowerback
     direction -0.0101212 0.99662 -0.0815298   
     length 2.08277   
     axis 0 0 0   XYZ
    dof rx ry rz
    limits (-20.0 45.0)
           (-30.0 30.0)
           (-30.0 30.0)
  end
  begin
     id 12 
     name upperback
     direction 0.024314 0.999591 -0.0150645   
     length 2.08524   
     axis 0 0 0   XYZ
    dof rx ry rz
    limits (-20.0 45.0)
           (-30.0 30.0)
           (-30.0 30.0)
  end
  begin
     id 13 
     name thorax
     direction 0.0285959 0.999323 0.0231357   
     length 2.09645   
     axis 0 0 0   XYZ
    dof rx ry rz
    limits (-20.0 45.0)
           (-30.0 30.0)
           (-30.0 30.0)
  end
  begin
     id 14 
     name lowerneck
     direction -0.065512 0.979301 0.191515   
     length 1.63798   
     axis 0 0 0   XYZ
    dof rx ry rz
    limits (-20.0 45.0)
           (-30.0 30.0)
           (-30.0 30.0)
  end
  begin
     id 15 
     name upperneck
     direction 0.0498479 0.98191 -0.182667   
     length 1.68731   
     axis 0 0 0   XYZ
    dof rx ry rz
    limits (-20.0 45.0)
           (-30.0 30.0)
           (-30.0 30.0)
  end
  begin
     id 16
     name head
     direction 0.0230358 0.996257 -0.0833175  
     length 1.69785  
     axis 0 0 0   XYZ
    dof rx ry rz
    limits (-20.0 45.0)
           (-30.0 30.0)
           (-30.0 30.0)
  end
  begin
     id 17 
     name lclavicle
     direction 0.967963 0.201165 -0.150269  
     length 3.63976  
     axis 0 0 0   XYZ
    dof ry rz
    limits (-20.0 10.0)
           (0.0 20.0)
  end
  begin
     id 18 
     name lhumerus
     direction 1 -4.48954e-011 -2.92837e-028   
     length 5.32462   
     axis 180 -30 -90   XYZ
    dof rx ry rz
    limits (-60.0 90.0)
           (-90.0 90.0)
           (-90.0 90.0)
  end
  begin
     id 19
     name lradius
     direction 1 -4.48958e-011 -6.39511e-027   
     length 3.48402   
     axis 180 -30 -90   XYZ
    dof rx
    limits (-10.0 170.0)
  end
  begin
     id 20
     name lwrist
     direction 1 -4.48975e-011 -1.1413e-026   
     length 1.74201   
     axis 6.88575e-015 90 90   XYZ
    dof ry
    limits (-180.0 0.0)
 end
  begin
     id 21 
     name lhand
     direction 1 -4.48899e-011 -2.28192e-026   
     length 0.572476   
     axis 1.45643e-014 90 90   XYZ
    dof rx rz
    limits (-90.0 90.0)
           (-45.0 45.0)
  end
  begin
     id 22 
     name lfingers
     direction 1 -4.49155e-011 -4.5684e-026   
     length 0.461545   
     axis 2.91283e-014 90 90   XYZ
    dof rx
    limits (0.0 90.0)
  end
  begin
     id 23
     name lthumb
     direction 0.707107 -6.34943e-011 0.707107   
     length 0.662688   
     axis -90 45 -2.25915e-014   XYZ
    dof rx rz
    limits (-45.0 45.0)
           (-45.0 45.0)
  end
  begin
     id 24 
     name rclavicle
     direction -0.964103 0.264019 -0.0282629   
     length 3.54491  
     axis 0 0 0   XYZ 
    dof ry rz
    limits (-10.0 20.0)
           (-20.0 0.0)
  end
  begin
     id 25 
     name rhumerus
     direction -1 -4.48964e-011 -2.45032e-027  
     length 5.33589   
     axis 180 30 90   XYZ
    dof rx ry rz
    limits (-90.0 60.0)
           (-90.0 90.0)
           (-90.0 90.0)
  end
  begin
     id 26 
     name rradius
     direction -1 -4.48987e-011 -1.55093e-027   
     length 3.64134   
     axis 180 30 90   XYZ
    dof rx
    limits (-10.0 170.0)
  end
  begin
     id 27 
     name rwrist
     direction -1 -4.4897e-011 -1.14128e-026   
     length 1.82067   
     axis 6.88575e-015 -90 -90   XYZ
    dof ry
    limits (-180.0 0.0)
  end
  begin
     id 28
     name rhand
     direction -1 -4.49021e-011 -2.28301e-026   
     length 0.734811   
     axis 1.45643e-014 -90 -90   XYZ
    dof rx rz
    limits (-90.0 90.0)
           (-45.0 45.0)
  end
  begin
     id 29
     name rfingers
     direction -1 -4.48862e-011 -4.56319e-026   
     length 0.592424   
     axis 2.91283e-014 -90 -90   XYZ
    dof rx
    limits (0.0 90.0)
  end
  begin
     id 30
     name rthumb
     direction -0.707107 -6.34978e-011 0.707107   
     length 0.850605   
     axis -90 -45 2.25915e-014   XYZ
    dof rx rz
    limits (-45.0 45.0)
           (-45.0 45.0)
  end
:hierarchy
  begin
    root lhipjoint rhipjoint lowerback
    lhipjoint lfemur
    lfemur ltibia
    ltibia lfoot
    lfoot ltoes
    rhipjoint rfemur
    rfemur rtibia
    rtibia rfoot
    rfoot rtoes
    lowerback upperback
    upperback thorax
    thorax lowerneck lclavicle rclavicle
    lowerneck upperneck
    upperneck head
    lclavicle lhumerus
    lhumerus lradius
    lradius lwrist
    lwrist lhand lthumb
    lhand lfingers
    rclavicle rhumerus
    rhumerus rradius
    rradius rwrist
    rwrist rhand rthumb
    rhand rfingers
  end

#!OML:ASF F:\VICON\USERDATA\INSTALL\rory3\rory3.ASF
:FULLY-SPECIFIED
:DEGREES
1
root -15.5748 17.7003 2.63351 4.55566 81.7591 2.10942
lowerback 5.24955 -1.11342 -2.64932
upperback 0.997622 -1.54929 2.55555
thorax -1.77296 -0.74564 4.23013
lowerneck -14.0215 1.16278 -8.25117
upperneck 38.0061 6.64362 -1.56096
head 15.6769 1.88365 2.05075
rclavicle 1.94809e-014 -6.36111e-015
rhumerus -36.2198 -15.6446 -74.2106
rradius 33.502
rwrist 24.4987
rhand -21.9368 4.89388
rfingers 7.12502
rthumb 4.46975 -25.039
lclavicle 1.94809e-014 -6.36111e-015
lhumerus -26.4671 10.0337 79.9737
lradius 25.7331
lwrist -11.1934
lhand -12.8389 28.0581
lfingers 7.12502
lthumb 13.2485 57.617
rfemur -28.1381 -2.42106 17.2836
rtibia 43.8513
rfoot -17.2009 -11.3867
rtoes 7.20063
lfemur -8.63257 -0.386224 -22.5273
ltibia 26.1234
lfoot -17.5844 -5.35021
ltoes -4.93132
2
root -15.5081 17.6756 2.614 14.1398 81.6502 12.4441
lowerback 5.66172 -0.891569 -4.09076
upperback 1.21339 -1.36165 2.00575
thorax -1.77655 -0.651119 4.47016
lowerneck -13.8936 1.09089 -8.17384
upperneck 38.0237 6.48318 -1.48961
head 15.6579 1.84364 2.03969
rclavicle 1.51076e-014 1.59028e-014
rhumerus -36.2677 -15.7992 -74.2811
rradius 33.5926
rwrist 24.2359
rhand -21.9921 5.00741
rfingers 7.12502
rthumb 4.41644 -24.9265
lclavicle 1.51076e-014 1.59028e-014
lhumerus -26.3905 9.86236 79.8959
lradius 25.3913
lwrist -11.2113
lhand -12.8164 28.1693
lfingers 7.12502
lthumb 13.2702 57.7269
rfemur -28.1398 -2.35365 15.8188
rtibia 44.3225
rfoot -17.9038 -10.4061
rtoes 14.6066
lfemur -7.06325 -0.29246 -24.4258
ltibia 24.872
lfoot -17.2515 -4.90019
ltoes -5.95638
3
root -15.4517 17.6659 2.59794 16.0183 81.9348 14.4011
lowerback 5.65407 -0.857963 -4.34111
upperback 1.25457 -1.33331 1.90685
thorax -1.72912 -0.638223 4.50636
lowerneck -13.9277 1.06935 -8.20063
upperneck 38.186 6.4548 -1.37254
head 15.7413 1.84073 2.09593
rclavicle 1.98785e-015 -2.38542e-015
rhumerus -36.2345 -15.7592 -74.318
rradius 33.65
rwrist 24.0984
rhand -22.0054 5.27525
rfingers 7.12502
rthumb 4.40357 -24.659
lclavicle 1.98785e-015 -2.38542e-015
lhumerus -26.3939 9.72237 79.9036
lradius 25.1475
lwrist -11.1643
lhand -13.0484 28.4282
lfingers 7.12502
lthumb 13.0465 58.0002
rfemur -28.4773 -2.15327 15.837
rtibia 44.0727
rfoot -16.9529 -10.7802
rtoes 7.97088
lfemur -6.72175 -0.218196 -24.7697
ltibia 24.6531
lfoot -17.2572 -5.02203
ltoes -6.30059
4
root -15.3953 17.667 2.58303 14.6289 82.4273 12.9113
lowerback 5.55598 -0.951701 -4.11277
upperback 1.22926 -1.43884 2.0149
thorax -1.69197 -0.692111 4.49425
lowerneck -13.9762 1.09358 -8.29972
upperneck 38.3756 6.54672 -1.30845
head 15.8405 1.86915 2.16324
rclavicle -5.01434e-014 2.62396e-014
rhumerus -36.1209 -15.5564 -74.3169
rradius 33.6245
rwrist 24.2239
rhand -21.9845 5.53726
rfingers 7.12502
rthumb 4.42377 -24.3965
lclavicle -5.01434e-014 2.62396e-014
lhumerus -26.5094 9.96874 79.8948
lradius 24.9722
lwrist -11.1929
lhand -13.3068 28.7746
lfingers 7.12502
lthumb 12.7974 58.3624
rfemur -28.9358 -2.00034 16.4251
rtibia 43.7729
rfoot -17.4705 -10.2726
rtoes 16.5724
lfemur -6.51676 -0.196553 -24.477
ltibia 24.3935
lfoot -17.2224 -5.47567
ltoes -6.08463
5
root -15.3411 17.6708 2.57024 10.8854 83.0734 9.03116
lowerback 5.50816 -1.0439 -3.56993
upperback 1.17768 -1.52487 2.16378
thorax -1.71991 -0.734882 4.34659
lowerneck -13.9374 1.05727 -8.30925
upperneck 38.4758 6.51618 -1.30081
head 15.884 1.85666 2.1661
rclavicle -4.42296e-014 5.56597e-015
rhumerus -36.0633 -15.2849 -74.3892
rradius 33.6819
rwrist 24.0261
rhand -21.7656 5.70665
rfingers 7.12502
rthumb 4.63515 -24.2226
lclavicle -4.42296e-014 5.56597e-015
lhumerus -26.6044 10.2203 79.8763
lradius 24.7982
lwrist -11.1366
lhand -13.8034 29.2634
lfingers 7.12502
lthumb 12.3187 58.8805
rfemur -29.3171 -1.85548 17.3038
rtibia 43.2309
rfoot -17.9962 -10.0173
rtoes 22.3935
lfemur -6.51353 -0.496695 -23.8465
ltibia 24.4454
lfoot -17.2668 -5.83269
ltoes -5.10587
6
root -15.2874 17.6698 2.54592 10.3879 83.6155 8.4754
lowerback 5.5251 -1.0727 -3.27483
upperback 1.15452 -1.54729 2.12952
thorax -1.76016 -0.745858 4.14599
lowerneck -13.9641 0.953826 -8.30176
upperneck 38.5712 6.40034 -1.3318
head 15.9482 1.8037 2.13718
rclavicle 1.07841e-014 9.54166e-015
rhumerus -36.0335 -15.1611 -74.4326
rradius 33.7822
rwrist 23.7618
rhand -21.6266 5.73994
rfingers 7.12502
rthumb 4.76935 -24.1864
lclavicle 1.07841e-014 9.54166e-015
lhumerus -26.6673 10.2953 79.9262
lradius 24.6923
lwrist -11.0883
lhand -14.1058 29.5369
lfingers 7.12502
lthumb 12.0271 59.1713
rfemur -29.6839 -1.85116 17.6393
rtibia 42.6388
rfoot -17.6887 -9.99197
rtoes 23.4958
lfemur -6.45315 -1.14731 -23.7722
ltibia 24.4996
lfoot -17.1708 -5.96505
ltoes -3.26218
7
root -15.2305 17.6669 2.52311 12.9377 83.9526 10.9972
lowerback 5.50324 -1.08722 -3.37823
upperback 1.13239 -1.57601 2.01077
thorax -1.76859 -0.759886 4.08266
lowerneck -14.0526 0.879232 -8.20513
upperneck 38.8171 6.36984 -1.44589
head 16.1108 1.78155 2.07742
rclavicle 8.79622e-015 -1.35174e-014
rhumerus -35.973 -14.9813 -74.4744
rradius 33.8072
rwrist 23.7447
rhand -21.6498 5.79752
rfingers 7.12502
rthumb 4.74688 -24.1293
lclavicle 8.79622e-015 -1.35174e-014
lhumerus -26.8247 10.4112 79.9469
lradius 24.6618
lwrist -11.0061
lhand -14.297 29.5466
lfingers 7.12502
lthumb 11.8427 59.1917
rfemur -30.0653 -1.87978 17.6346
rtibia 42.0564
rfoot -16.406 -10.2141
rtoes 20.5064
lfemur -6.31978 -1.52282 -24.1049
ltibia 24.5053
lfoot -17.2183 -5.98264
ltoes -2.82031
8
root -15.1705 17.664 2.50846 14.9754 84.2184 12.9885
lowerback 5.4459 -1.09669 -3.55239
upperback 1.10411 -1.59973 1.94746
thorax -1.7604 -0.771282 4.11584
lowerneck -14.0896 0.857863 -8.08071
upperneck 39.0543 6.41053 -1.56989
head 16.2557 1.79432 2.01841
rclavicle 1.98785e-015 -1.11319e-014
rhumerus -35.8908 -14.7788 -74.4987
rradius 33.7623
rwrist 23.8736
rhand -21.8289 5.96858
rfingers 7.12502
rthumb 4.57398 -23.962
lclavicle 1.98785e-015 -1.11319e-014
lhumerus -27.0053 10.8796 79.9083
lradius 24.5536
lwrist -11.325
lhand -14.4697 29.7102
lfingers 7.12502
lthumb 11.6762 59.3649
rfemur -30.4648 -1.83596 17.723
rtibia 41.4801
rfoot -15.3877 -10.2789
rtoes 18.9122
lfemur -6.1452 -1.5909 -24.3288
ltibia 24.4217
lfoot -17.3176 -6.14562
ltoes -2.66202
9
root -15.1089 17.6585 2.49338 16.3777 84.5051 14.353
lowerback 5.37058 -1.12027 -3.65731
upperback 1.12049 -1.63467 1.95289
thorax -1.69481 -0.79019 4.18066
lowerneck -14.1205 0.856192 -8.1414
upperneck 39.1497 6.47621 -1.60779
head 16.314 1.80643 2.02806
rclavicle 9.93923e-015 5.96354e-015
rhumerus -35.7154 -14.4977 -74.4844
rradius 33.7426
rwrist 23.9109
rhand -21.995 6.26401
rfingers 7.12502
rthumb 4.41357 -23.67
lclavicle 9.93923e-015 5.96354e-015
lhumerus -27.072 11.6516 79.8791
lradius 24.3028
lwrist -11.8605
lhand -14.4639 29.694
lfingers 7.12502
lthumb 11.6818 59.3483
rfemur -30.8396 -1.78216 17.8718
rtibia 40.8841
rfoot -14.9632 -10.2056
rtoes 20.0329
lfemur -5.91423 -1.55878 -24.4502
ltibia 24.2438
lfoot -17.4165 -6.41393
ltoes -2.29164
